{"title":"The Raven 2012 BDRip XviD - SCREAM","uid":7441548,"size":747520881,"categoryP":"video","categoryS":"movies","magnet":"?xt=urn:btih:c6ea06226a9f07ad3d10b28badb9ddbb4ed714c7&amp;dn=The+Raven+2012+BDRip+XviD+-+SCREAM&amp;tr=udp%3A%2F%2Ftracker.openbittorrent.com%3A80&amp;tr=udp%3A%2F%2Fopen.demonii.com%3A1337&amp;tr=udp%3A%2F%2Ftracker.coppersurfer.tk%3A6969&amp;tr=udp%3A%2F%2Fexodus.desync.com%3A6969","seeders":0,"leechers":1,"uploader":"tykoon123","files":-1,"time":1342235550,"description":"Poster: &lt;a href=&quot;\nhttp://imgh.us/The-Raven-2012.jpg&quot; rel=&quot;nofollow&quot; target=&quot;_NEW&quot;&gt;\nhttp://imgh.us/The-Raven-2012.jpg&lt;/a&gt;\n\nInfo:\n\nFormat : AVI\nFormat/Info : Audio Video Interleave\nFile size : 700 MiB\nDuration : 1h 50mn\nOverall bit rate mode : Variable\nOverall bit rate : 883 Kbps\nWriting application : VirtualDubMod 1.5.10.2 (build 2540/release)\nWriting library : VirtualDubMod build 2540/release\n\nVideo\nID : 0\nFormat : MPEG-4 Visual\nFormat profile : Advanced Simple@L5\nFormat settings, BVOP : 2\nFormat settings, QPel : No\nFormat settings, GMC : No warppoints\nFormat settings, Matrix : Default (H.263)\nCodec ID : XVID\nCodec ID/Hint : XviD\nDuration : 1h 50mn\nBit rate : 744 Kbps\nWidth : 640 pixels\nHeight : 272 pixels\nDisplay aspect ratio : 2.35:1\nFrame rate : 23.976 fps\nColor space : YUV\nChroma subsampling : 4:2:0\nBit depth : 8 bits\nScan type : Progressive\nCompression mode : Lossy\nBits/(Pixel*Frame) : 0.178\nStream size : 590 MiB (84%)\nWriting library : XviD 64\n\nAudio\nID : 1\nFormat : MPEG Audio\nFormat version : Version 1\nFormat profile : Layer 3\nMode : Joint stereo\nCodec ID : 55\nCodec ID/Hint : MP3\nDuration : 1h 50mn\nBit rate mode : Variable\nBit rate : 128 Kbps\nChannel(s) : 2 channels\nSampling rate : 48.0 KHz\nCompression mode : Lossy\nStream size : 99.9 MiB (14%)\nAlignment : Aligned on interleaves\nInterleave, duration : 24 ms (0.58 video frame)\nInterleave, preload duration : 146 ms\nWriting library : LAME3.90.\nEncoding settings : -m j -V 4 -q 2 -lowpass 17.6 --abr 128\n\nSCREENS:\n &lt;a href=&quot;\nhttp://www.miralaonline.net/images/DzeTm.png&quot; rel=&quot;nofollow&quot; target=&quot;_NEW&quot;&gt;\nhttp://www.miralaonline.net/images/DzeTm.png&lt;/a&gt; &lt;a href=&quot;\nhttp://www.miralaonline.net/images/uJ5d.png&quot; rel=&quot;nofollow&quot; target=&quot;_NEW&quot;&gt;\nhttp://www.miralaonline.net/images/uJ5d.png&lt;/a&gt; &lt;a href=&quot;\nhttp://www.miralaonline.net/images/bUDA.png&quot; rel=&quot;nofollow&quot; target=&quot;_NEW&quot;&gt;\nhttp://www.miralaonline.net/images/bUDA.png&lt;/a&gt;\n\n","torrent":{"xt":"urn:btih:c6ea06226a9f07ad3d10b28badb9ddbb4ed714c7","amp;dn":"The+Raven+2012+BDRip+XviD+-+SCREAM","amp;tr":["udp%3A%2F%2Ftracker.openbittorrent.com%3A80","udp%3A%2F%2Fopen.demonii.com%3A1337","udp%3A%2F%2Ftracker.coppersurfer.tk%3A6969","udp%3A%2F%2Fexodus.desync.com%3A6969"],"infoHash":"c6ea06226a9f07ad3d10b28badb9ddbb4ed714c7","infoHashBuffer":{"type":"Buffer","data":[198,234,6,34,106,159,7,173,61,16,178,139,173,185,221,187,78,215,20,199]},"announce":[],"urlList":[]}}